<?xml version="1.0" encoding="utf-8"?>
<?xml-stylesheet type="text/xsl" href="rss1.xsl"?>
<rss version="2.0" xmlns:atom="http://www.w3.org/2005/Atom" xmlns:content="http://purl.org/rss/1.0/modules/content/" xmlns:dc="http://purl.org/dc/elements/1.1/" xmlns:media="http://search.yahoo.com/mrss/">
<channel>
 <title>Getty</title>
 <link>http://www.gettyimg.com/</link>
 <atom:link href="http://www.gettyimg.com/" rel="self" type="application/rss+xml" />

 
                <item>
                <title><![CDATA[【Cinema Center】SERIES - Iwájú - Season 1 - 1080p Disney+ WEB-DL DDP5.1 Atmos H.264-LAZY]]></title>
                <link><![CDATA[https://sharemania.us/threads/iw%C3%A1j%C3%BA-season-1-1080p-disney-web-dl-ddp5-1-atmos-h-264-lazy.238835/]]></link>
                <description><![CDATA[<article>
<blockquote class="messageText SelectQuoteContainer ugc baseHtml">
Iwájú:<img src="https://artworks.thetvdb.com/banners/v4/series/393219/banners/65d73e6d66c78.jpg" class="bbCodeImage LbImage" alt="[​IMG]" data-url="https://artworks.thetvdb.com/banners/v4/series/393219/banners/65d73e6d66c78.jpg" style=""> <br>
<br>
<div class="bbCodeBlock bbCodeQuote">
<aside>
<blockquote class="quoteContainer"><div class="quote"><i><b>Synopsis:</b></i><br>
Set in Lagos, the show explores deep themes of class, innocence and challenging the status quo.</div><div class="quoteExpand">Click to expand...</div></blockquote>
</aside>
</div>
<div class="ToggleTriggerAnchor bbCodeSpoilerContainer">
<button type="button" class="button bbCodeSpoilerButton ToggleTrigger Tooltip JsOnly" data-target="> .SpoilerTarget"><span>Spoiler: <span class="SpoilerTitle">MediaInfo</span></span></button>
<div class="SpoilerTarget bbCodeSpoilerText">General<br>
Unique ID : 70172871019896449824082494251328409246 (0x34CACDA8E01A8C9B13DDD3B45AF10E9E)<br>
Complete name : Iwaju.S01E01.Iwaju.1080p.DSNP.WEB-DL.DDP5.1.Atmos.H.264-LAZY.mkv<br>
Format : Matroska<br>
Format version : Version 4<br>
File size : 1.20 GiB<br>
Duration : 23 min 11 s<br>
Overall bit rate mode : Variable<br>
Overall bit rate : 7 403 kb/s<br>
Encoded date : UTC 2024-02-28 18:16:03<br>
Writing application : mkvmerge v82.0 ('I'm The President') 64-bit<br>
Writing library : libebml v1.4.5 + libmatroska v1.7.1<br>
<br>
Video<br>
ID : 1<br>
Format : AVC<br>
Format/Info : Advanced Video Codec<br>
Format profile : High@L4<br>
Format settings : CABAC / 4 Ref Frames<br>
Format settings, CABAC : Yes<br>
Format settings, Reference frames : 4 frames<br>
Codec ID : V_MPEG4/ISO/AVC<br>
Duration : 23 min 11 s<br>
Bit rate mode : Variable<br>
Bit rate : 6 633 kb/s<br>
Maximum bit rate : 12.7 Mb/s<br>
Width : 1 920 pixels<br>
Height : 1 080 pixels<br>
Display aspect ratio : 16:9<br>
Frame rate mode : Constant<br>
Frame rate : 24.000 FPS<br>
Color space : YUV<br>
Chroma subsampling : 4:2:0<br>
Bit depth : 8 bits<br>
Scan type : Progressive<br>
Bits/(Pixel*Frame) : 0.133<br>
Stream size : 1.07 GiB (90%)<br>
Default : Yes<br>
Forced : No<br>
Color range : Limited<br>
Color primaries : BT.709<br>
Transfer characteristics : BT.709<br>
Matrix coefficients : BT.709<br>
<br>
Audio<br>
ID : 2<br>
Format : E-AC-3 JOC<br>
Format/Info : Enhanced AC-3 with Joint Object Coding<br>
Commercial name : Dolby Digital Plus with Dolby Atmos<br>
Codec ID : A_EAC3<br>
Duration : 23 min 11 s<br>
Bit rate mode : Constant<br>
Bit rate : 768 kb/s<br>
Channel(s) : 6 channels<br>
Channel layout : L R C LFE Ls Rs<br>
Sampling rate : 48.0 kHz<br>
Frame rate : 31.250 FPS (1536 SPF)<br>
Compression mode : Lossy<br>
Stream size : 127 MiB (10%)<br>
Language : English<br>
Service kind : Complete Main<br>
Default : Yes<br>
Forced : No<br>
Complexity index : 16<br>
Number of dynamic objects : 15<br>
Bed channel count : 1 channel<br>
Bed channel configuration : LFE<br>
<br>
Text<br>
ID : 3<br>
Format : UTF-8<br>
Codec ID : S_TEXT/UTF8<br>
Codec ID/Info : UTF-8 Plain Text<br>
Duration : 20 min 53 s<br>
Bit rate : 73 b/s<br>
Count of elements : 388<br>
Stream size : 11.2 KiB (0%)<br>
Title : SDH<br>
Language : English<br>
Default : No<br>
Forced : No<br>
<br>
Menu<br>
00:06:25.458 : en:Scene 1<br>
00:11:19.958 : en:Scene 2<br>
00:16:09.708 : en:Scene 3<br>
00:21:10.208 : en:Credits</div>
</div><br>
Screenshots:<br>
<img src="https://ptpimg.me/juo78q.jpg" class="bbCodeImage LbImage" alt="[​IMG]" data-url="https://ptpimg.me/juo78q.jpg" style=""> <br>
<div class="bbCodeBlock bbCodeVfcHH HiddenContent">
<div class="attribution type">Hidden Content:</div>
<blockquote>You must either reply or click 'Like' to see the hidden information contained here.</blockquote>
</div>
<div class="messageTextEndMarker">&nbsp;</div>
</blockquote>
</article>]]></description>
                <author><![CDATA[LazyRips]]></author>
                </item>

                
                <item>
                <title><![CDATA[【Apple Music】WEB-RiP - SOPHIE - PONYBOY (AMRip, AAC-1440p/HEVC)]]></title>
                <link><![CDATA[https://sharemania.us/threads/sophie-ponyboy-amrip-aac-1440p-hevc.238836/]]></link>
                <description><![CDATA[<article>
<blockquote class="messageText SelectQuoteContainer ugc baseHtml">
<div style="text-align: center"><br>
<img src="https://files.catbox.moe/ay37bg.png" class="bbCodeImage LbImage" alt="[​IMG]" data-url="https://files.catbox.moe/ay37bg.png" style=""><br>
<span style="font-size: 18px"><b>Mediainfo:</b></span><br>
<div class="ToggleTriggerAnchor bbCodeSpoilerContainer">
<button type="button" class="button bbCodeSpoilerButton ToggleTrigger Tooltip JsOnly" data-target="> .SpoilerTarget"><span>Spoiler</span></button>
<div class="SpoilerTarget bbCodeSpoilerText"><div style="text-align: left"><br>
<div class="bbCodeBlock bbCodeCode">
<div class="type">Code:</div>
<pre>General
Complete name                  : SOPHIE - PONYBOY (1440).mkv
Format                         : MPEG-4
Format profile                 : Base Media
Codec ID                       : isom (isom/iso4)
File size                      : 240 MiB
Duration                       : 3 min 15 s
Overall bit rate mode          : Variable
Overall bit rate               : 10.3 Mb/s
Frame rate                     : 23.976 FPS
Movie name                     : Ponyboy
Performer                      : SOPHIE
Genre                          : Electronic
ContentType                    : Music Video
Copyright                      : ℗ 2017 MSMSMSM INC / Future Classic under exclusive license to Transgressive Records / [PIAS]
GenreID                        : 1607
AppleStoreCountry              : United States
AlbumTitleID                   : 904687727
AppleStoreCatalogID            : 1373182962

Video
ID                             : 2
Format                         : HEVC
Format/Info                    : High Efficiency Video Coding
Format profile                 : Main 10@L4.1@Main
Codec ID/Info                  : High Efficiency Video Coding
Duration                       : 3 min 15 s
Maximum bit rate               : 33.4 Mb/s
Width                          : 2 048 pixels
Height                         : 858 pixels
Display aspect ratio           : 2.39:1
Frame rate mode                : Constant
Frame rate                     : 23.976 (24000/1001) FPS
Color space                    : YUV
Chroma subsampling             : 4:2:0
Bit depth                      : 10 bits
Scan type                      : Progressive
Bits/(Pixel*Frame)             : 0.238
Stream size                    : 233 MiB (97%)
Color range                    : Limited
Color primaries                : BT.709
Transfer characteristics       : BT.709
Matrix coefficients            : BT.709
Codec configuration box        : hvcC

Audio
ID                             : 1
Format                         : AAC LC
Format/Info                    : Advanced Audio Codec Low Complexity
Duration                       : 3 min 15 s
Duration_LastFrame             : -11 ms
Bit rate mode                  : Variable
Maximum bit rate               : 480 kb/s
Channel(s)                     : 2 channels
Sampling rate                  : 48.0 kHz
Frame rate                     : 46.875 FPS (1024 SPF)
Compression mode               : Lossy
Stream size                    : 5.92 MiB (2%)
</pre>
</div></div></div>
</div><br>
<div style="text-align: center"><br>
<img src="https://files.catbox.moe/1ga1p8.gif" class="bbCodeImage LbImage" alt="[​IMG]" data-url="https://files.catbox.moe/1ga1p8.gif" style=""><br>
<br>
<span style="text-decoration: underline"><span style="color: #006600"><i><b><span style="font-size: 26px">je vous remercie!</span></b></i><br>
<img src="https://files.catbox.moe/ay37bg.png" class="bbCodeImage LbImage" alt="[​IMG]" data-url="https://files.catbox.moe/ay37bg.png" style=""><br>
<br>
<div class="bbCodeBlock bbCodeVfcHH HiddenContent">
<div class="attribution type">Hidden Content:</div>
<blockquote>You must either reply or click 'Like' to see the hidden information contained here.</blockquote>
</div></span></span>​</div></div>
<div class="messageTextEndMarker">&nbsp;</div>
</blockquote>
</article>]]></description>
                <author><![CDATA[sweetbee123]]></author>
                </item>

                </channel></rss>